<svg width="800" height="800" viewBox="0 0 800 800" fill="none" xmlns="http://www.w3.org/2000/svg">
<g clip-path="url(#clip0_42_5)">
<path d="M321.391 187.362C341.398 178.972 349.787 155.094 340.752 135.733L309.13 69.2605C300.094 50.5514 278.152 42.1552 258.791 50.5514C203.935 73.7845 156.824 104.117 119.392 140.902C73.5715 184.135 42.594 233.828 25.8146 288.684C9.0351 344.192 0 419.693 0 515.853V713.979C0 735.276 17.4248 752.701 38.7219 752.701H292.35C313.647 752.701 331.072 735.276 331.072 713.979V460.351C331.072 439.048 313.647 421.629 292.35 421.629H171.022C172.312 356.441 187.801 304.173 216.197 264.799C239.43 233.189 274.28 207.375 321.391 187.362Z" fill="#FEA116"/>
<path d="M777.019 187.362C797.025 178.972 805.408 155.094 796.379 135.733L764.757 69.9123C755.722 51.1967 733.779 42.807 714.418 51.1967C660.208 74.4298 613.735 104.762 575.665 140.902C529.838 184.787 498.221 234.48 481.435 289.336C464.656 343.54 456.272 419.054 456.272 515.859V713.986C456.272 735.283 473.697 752.708 494.994 752.708H748.623C769.92 752.708 787.344 735.283 787.344 713.986V460.358C787.344 439.054 769.92 421.636 748.623 421.636H626.649C627.939 356.448 643.435 304.18 671.824 264.806C695.057 233.189 729.907 207.375 777.019 187.362Z" fill="#FEA116"/>
</g>
<defs>
<clipPath id="clip0_42_5">
<rect width="800" height="800" fill="white"/>
</clipPath>
</defs>
</svg>
